<?xml version="1.0" encoding="UTF-8" standalone="no"?><svg width="131" height="76" viewBox="0 0 131 76" xmlns="http://www.w3.org/2000/svg"><title>logo</title><g fill="#FEFEFE" fill-rule="evenodd"><path d="M85.812 15.066V.303H4.98C2.595.303.66 2.225.66 4.597v66.84c-.01.298.014.586.06.865.43 2.129 2.417 3.553 4.486 3.553H87.717V62.67l4.19-3.785V19.136l-6.095-4.07zM62.773 30.033c.986-.897 2.287-1.442 4.325-1.442.849 0 1.355.054 1.984.135.52.07.959.191 1.37.233.15.012.205.081.205.163 0 .108-.042.27-.07.748-.026.447-.014 1.195-.04 1.467-.014.205-.042.314-.164.314-.11 0-.136-.109-.136-.3a1.936 1.936 0 0 0-.535-1.25c-.452-.476-1.52-.844-2.778-.844-1.19 0-1.97.3-2.573.843-.999.911-1.257 2.204-1.257 3.522 0 3.236 2.476 4.84 4.308 4.84 1.22 0 1.958-.137 2.505-.761.234-.259.41-.653.466-.897.04-.219.068-.273.178-.273.096 0 .122.096.122.205 0 .163-.164 1.345-.3 1.808-.068.23-.124.298-.356.394-.547.218-1.588.312-2.463.312-1.876 0-3.45-.408-4.694-1.482-1.342-1.169-1.696-2.692-1.696-4.01 0-.925.286-2.528 1.6-3.725zm-7.03-1.251c.521 0 1.384.04 1.78.04.343 0 1.15-.04 1.668-.04.18 0 .289.026.289.11 0 .107-.083.135-.219.135a2.44 2.44 0 0 0-.41.04c-.37.069-.479.3-.507.775-.028.435-.028.815-.028 2.883v2.393c0 1.318 0 2.392.056 2.977.04.367.136.612.547.666.192.027.492.055.699.055.15 0 .218.04.218.108 0 .095-.11.137-.26.137-.903 0-1.766-.042-2.135-.042-.314 0-1.177.042-1.723.042-.179 0-.275-.042-.275-.137 0-.068.054-.108.219-.108.206 0 .37-.028.492-.055.274-.054.356-.285.397-.68.07-.571.07-1.645.07-2.963v-2.393c0-2.068 0-2.448-.028-2.883-.027-.462-.165-.694-.465-.762a1.994 1.994 0 0 0-.493-.053c-.138 0-.22-.028-.22-.136 0-.083.11-.109.329-.109zm-16.153 0c.71 0 1.464.04 1.586.04.124 0 .726-.04 1.52-.04.192 0 .288.04.288.121 0 .11-.11.124-.247.124-.11 0-.248 0-.342.053-.124.056-.152.15-.152.3 0 .177.138.639.302 1.251.233.897 1.506 5.016 1.752 5.777h.04l2.655-7.083c.15-.38.232-.49.342-.49.15 0 .22.205.397.64l2.846 6.84h.04c.249-.913 1.342-4.502 1.82-6.091.097-.314.139-.599.139-.79 0-.218-.124-.407-.657-.407-.138 0-.234-.042-.234-.124 0-.095.11-.121.316-.121.725 0 1.3.04 1.423.04.095 0 .683-.04 1.136-.04.15 0 .246.026.246.11 0 .093-.068.135-.192.135-.137 0-.329.013-.479.067-.328.122-.478.666-.767 1.442-.628 1.712-2.066 6.037-2.736 8.076-.15.475-.219.638-.397.638-.136 0-.218-.163-.424-.666l-2.845-6.811h-.028c-.26.694-2.08 5.506-2.669 6.757-.26.557-.328.72-.492.72-.137 0-.207-.15-.315-.503l-2.9-8.633c-.165-.503-.315-.829-.507-.966-.15-.094-.425-.121-.547-.121-.138 0-.22-.014-.22-.124 0-.095.11-.121.302-.121zm6.752 24.34c.044.388.135.683.584.737.223.026.553.054.733.054.119 0 .178.04.178.107 0 .092-.105.134-.298.134-.868 0-1.976-.042-2.2-.042-.284 0-1.227.042-1.826.042-.194 0-.299-.042-.299-.134 0-.067.06-.107.24-.107.223 0 .403-.028.537-.054.3-.054.376-.349.435-.737.075-.564.075-1.622.075-2.854V47.91c0-2.036 0-2.413-.031-2.841-.03-.455-.149-.67-.643-.764a3.504 3.504 0 0 0-.583-.04c-.164 0-.255-.027-.255-.121s.105-.12.33-.12c.793 0 1.736.04 2.05.04.509 0 1.646-.04 2.11-.04.943 0 1.946.08 2.753.576.419.255 1.018.937 1.018 1.836 0 .99-.465 1.903-1.975 3 1.332 1.501 2.364 2.693 3.246 3.524.839.777 1.453.871 1.677.911.164.028.3.042.42.042.118 0 .18.04.18.107 0 .106-.106.134-.286.134h-1.421c-.839 0-1.212-.068-1.602-.255-.643-.309-1.212-.939-2.05-1.97-.598-.736-1.287-1.649-1.481-1.849-.075-.08-.164-.093-.27-.093l-1.302-.028c-.075 0-.119.028-.119.108v.187c0 1.246 0 2.304.075 2.868zm-8.18.014c.043.374.134.67.583.723.21.026.538.054.763.054.164 0 .24.04.24.107 0 .092-.121.134-.285.134-.987 0-1.93-.042-2.35-.042-.344 0-1.287.042-1.886.042-.194 0-.298-.042-.298-.134 0-.067.059-.107.239-.107.225 0 .405-.028.54-.054.298-.054.387-.349.433-.737.075-.564.075-1.622.075-2.854v-5.494l-2.23.053c-.869.028-1.227.094-1.452.389-.15.201-.223.36-.255.47-.03.106-.073.16-.164.16-.105 0-.135-.068-.135-.214 0-.215.285-1.434.315-1.542.045-.173.089-.253.18-.253.119 0 .269.133.642.16.435.04 1.003.067 1.497.067h5.926c.96 0 1.317-.133 1.438-.133.104 0 .118.08.118.28 0 .282-.043 1.206-.043 1.555-.016.134-.046.213-.135.213-.12 0-.15-.066-.166-.267l-.014-.147c-.031-.349-.435-.724-1.767-.75l-1.885-.041v5.494c0 1.232 0 2.29.075 2.868zm.763-15.286c.765.79 1.327.885 1.531.925.15.027.275.041.383.041.11 0 .164.04.164.108 0 .11-.096.137-.258.137h-1.302c-.765 0-1.107-.07-1.463-.259-.589-.314-1.11-.952-1.874-1.998-.549-.748-1.177-1.673-1.356-1.877-.068-.082-.15-.096-.246-.096l-1.19-.026c-.069 0-.11.026-.11.108v.19c0 1.265 0 2.34.069 2.91.04.394.122.694.533.748.206.027.506.055.67.055.11 0 .164.04.164.108 0 .095-.096.137-.274.137-.793 0-1.806-.042-2.01-.042-.26 0-1.123.042-1.67.042-.178 0-.274-.042-.274-.137 0-.068.054-.108.22-.108.205 0 .369-.028.493-.055.272-.054.342-.354.396-.748.068-.57.068-1.645.068-2.895v-2.393c0-2.068 0-2.448-.028-2.883-.026-.462-.136-.68-.587-.776a2.955 2.955 0 0 0-.534-.04c-.15 0-.232-.027-.232-.123 0-.095.096-.121.3-.121.725 0 1.588.04 1.876.04.465 0 1.504-.04 1.928-.04.863 0 1.78.082 2.519.585.382.258.93.95.93 1.863 0 1.004-.424 1.929-1.807 3.044 1.219 1.524 2.162 2.733 2.97 3.576zm-9.503-23.405l-1.06 1.825-1.06-1.825h2.12zm1.993 1.197v2.837l-2.472-1.42 2.472-1.417zm-3.518 1.418l-2.471 1.419v-2.837l2.471 1.418zm-12.945-2.615l-1.06 1.825-1.06-1.825h2.12zm1.993 1.197v2.837l-2.473-1.42 2.473-1.417zm-3.518 1.418l-2.473 1.419v-2.837l2.473 1.418zM7.7 9.414c.856 1.862-.031 4.247-.031 4.247s1.84-2.907 3.582-2.187c2.463 1.016.594 3.43.594 3.43s-1.425-2.792-3.125-.622c-1.612 2.06.987 4.542 2.138 4.934 1.83.625 2.96-1.011 2.96-1.011s1.6 2.113 4.145 1.143c1.546-.588 2.146-1.305 2.4-2.68.178-.972.113-1.702-.493-2.483-.747-.961-1.973-1.504-2.96-1.015-.847.422-.461 1.896-.461 1.896s-2.727-1.99-.493-3.691c1.974-1.504 4.307 1.306 4.307 1.306s-1.48-2.19-.952-4.313c.44-1.78 1.808-2.55 1.808-2.55s1.367.77 1.81 2.55c.525 2.124-.954 4.313-.954 4.313s2.335-2.81 4.307-1.306c2.233 1.702-.493 3.691-.493 3.691s.386-1.474-.461-1.896c-.985-.489-2.213.054-2.959 1.015-.607.78-.672 1.511-.494 2.483.253 1.375.856 2.092 2.402 2.68 2.544.97 4.142-1.143 4.142-1.143s1.132 1.636 2.96 1.011c1.152-.392 3.75-2.874 2.138-4.934-1.699-2.17-3.124.621-3.124.621s-1.869-2.413.594-3.43c1.741-.72 3.584 2.188 3.584 2.188s-.89-2.385-.034-4.247c.917-2 2.697-2.092 2.697-2.092l-3.88 14.9H8.883l-3.88-14.9s1.78.092 2.696 2.092zm19.146 29.074l-1.095-2.881c-.028-.068-.068-.096-.137-.096h-3.05c-.07 0-.097.028-.125.11l-.739 1.944c-.138.34-.206.665-.206.83 0 .244.124.421.549.421h.204c.164 0 .206.026.206.108 0 .11-.082.137-.232.137-.438 0-1.027-.042-1.451-.042-.15 0-.903.042-1.614.042-.178 0-.26-.028-.26-.137 0-.082.054-.108.164-.108.122 0 .314-.014.422-.028.63-.081.891-.543 1.164-1.223l3.435-8.538c.164-.396.246-.545.384-.545.122 0 .205.123.34.435.33.748 2.52 6.296 3.394 8.362.52 1.223.917 1.414 1.205 1.482.205.041.41.055.575.055.11 0 .178.012.178.108 0 .11-.124.137-.63.137-.493 0-1.492 0-2.587-.028-.246-.014-.41-.014-.41-.11 0-.08.055-.107.192-.12.096-.028.192-.152.124-.315zm-7.079 6.58c-.03-.454-.178-.683-.508-.749a2.378 2.378 0 0 0-.538-.054c-.15 0-.24-.027-.24-.135 0-.08.12-.106.359-.106.569 0 1.512.04 1.945.04.374 0 1.258-.04 1.825-.04.196 0 .315.026.315.106 0 .108-.09.135-.24.135a2.92 2.92 0 0 0-.448.04c-.404.068-.524.295-.554.764-.03.428-.03.805-.03 2.841v2.358c0 1.3 0 2.357.06 2.933.045.363.15.604.599.658.21.026.54.054.763.054.164 0 .24.04.24.107 0 .092-.12.134-.285.134-.987 0-1.93-.042-2.334-.042-.344 0-1.287.042-1.886.042-.194 0-.299-.042-.299-.134 0-.067.06-.107.24-.107.225 0 .403-.028.537-.054.3-.054.39-.281.435-.67.075-.564.075-1.622.075-2.921V47.91c0-2.036 0-2.413-.031-2.841zM8.418 30.632c.232.897 1.506 5.016 1.752 5.777h.042l2.655-7.083c.15-.38.232-.49.342-.49.15 0 .218.205.396.64l2.845 6.84h.042c.247-.913 1.34-4.502 1.82-6.091.096-.314.136-.599.136-.79 0-.218-.122-.407-.656-.407-.137 0-.233-.042-.233-.124 0-.095.11-.121.315-.121.725 0 1.3.04 1.423.04.096 0 .685-.04 1.135-.04.15 0 .247.026.247.11 0 .093-.068.135-.19.135-.139 0-.329.013-.48.067-.33.122-.48.666-.766 1.442-.63 1.712-2.066 6.037-2.737 8.076-.152.475-.22.638-.398.638-.136 0-.218-.163-.423-.666l-2.846-6.811h-.028c-.26.694-2.08 5.506-2.67 6.757-.258.557-.327.72-.492.72-.136 0-.204-.15-.314-.503l-2.9-8.633c-.165-.503-.315-.829-.507-.966-.15-.094-.425-.121-.547-.121-.136 0-.218-.014-.218-.124 0-.095.108-.121.3-.121.71 0 1.464.04 1.588.04.122 0 .724-.04 1.52-.04.19 0 .285.04.285.121 0 .11-.11.124-.246.124-.11 0-.246 0-.342.053-.122.056-.15.15-.15.3 0 .177.136.639.3 1.251zm7.758 38.07c-.073.223-.134.29-.386.383-.595.211-1.727.305-2.679.305-2.04 0-3.752-.397-5.105-1.443-1.458-1.137-1.846-2.618-1.846-3.902 0-.899.312-2.46 1.741-3.624 1.073-.873 2.485-1.402 4.704-1.402.922 0 1.474.052 2.158.132.564.066 1.041.186 1.488.224.163.014.224.081.224.16 0 .105-.046.265-.075.726-.03.438-.016 1.165-.046 1.43-.014.2-.043.304-.178.304-.119 0-.148-.105-.148-.29a1.79 1.79 0 0 0-.58-1.218c-.493-.463-1.652-.82-3.022-.82-1.296 0-2.143.29-2.798.82-1.086.886-1.369 2.142-1.369 3.426 0 3.149 2.693 4.709 4.688 4.709 1.324 0 2.129-.132 2.723-.741.253-.252.447-.635.506-.873.046-.211.075-.265.194-.265.105 0 .135.093.135.2 0 .157-.18 1.31-.329 1.758zm-.438-16.008c-.688.63-2.246 1.58-5.014 1.58-1.092 0-2.439-.16-3.188-.16-.344 0-1.287.04-1.884.04-.196 0-.3-.04-.3-.133 0-.067.06-.107.238-.107.226 0 .406-.028.54-.054.299-.054.374-.349.433-.737.075-.564.075-1.622.075-2.854V47.91c0-2.036 0-2.413-.03-2.841-.029-.455-.15-.67-.642-.764a3.542 3.542 0 0 0-.585-.04c-.164 0-.253-.027-.253-.121s.104-.12.328-.12c.793 0 1.736.04 2.155.04.465 0 1.406-.04 2.306-.04 1.87 0 4.37 0 5.999 1.527.75.697 1.453 1.81 1.453 3.404a5.053 5.053 0 0 1-1.631 3.738zm7.974 16.696c-4.27 0-5.997-2.845-5.997-5.187 0-2.26 1.682-5.184 6.146-5.184 3.706 0 6.013 1.917 6.013 4.946 0 3.03-2.382 5.425-6.162 5.425zm5.897-15.598c-.748.429-1.586.55-2.38.55-.867 0-1.541-.093-2.184-.348-.241-.094-.285-.162-.285-.457 0-.737.06-1.54.075-1.754.014-.2.06-.348.179-.348.134 0 .15.12.15.227 0 .175.06.456.134.683.33.991 1.212 1.354 2.14 1.354 1.348 0 2.007-.818 2.007-1.527 0-.658-.226-1.287-1.468-2.144l-.688-.483c-1.647-1.152-2.214-2.09-2.214-3.174 0-1.475 1.376-2.533 3.456-2.533.973 0 1.602.133 1.991.227.135.026.21.066.21.161 0 .174-.061.563-.061 1.609 0 .295-.044.4-.165.4-.104 0-.15-.08-.15-.24 0-.12-.075-.537-.388-.886-.225-.253-.658-.655-1.63-.655-1.108 0-1.782.576-1.782 1.38 0 .616.344 1.085 1.586 1.928l.419.283c1.795 1.245 2.454 2.144 2.454 3.416 0 .777-.329 1.702-1.406 2.331zm12.335 5.65c-.162 0-.251.014-.431.039-.402.067-.52.291-.55.754-.03.424-.03.795-.03 2.806v1.414c0 1.469-.164 3.029-1.415 3.981-1.056.808-2.127.954-3.094.954-.788 0-2.217-.04-3.303-.914-.76-.607-1.326-1.588-1.326-3.504V63.04c0-2.011 0-2.382-.03-2.806-.029-.449-.148-.66-.639-.754a3.7 3.7 0 0 0-.58-.038c-.164 0-.253-.026-.253-.12 0-.092.103-.118.327-.118.79 0 1.727.038 2.173.038.358 0 1.294-.038 1.83-.038.224 0 .328.026.328.118 0 .094-.089.12-.239.12-.162 0-.251.013-.431.038-.402.067-.52.291-.55.754-.03.424-.03.795-.03 2.806v1.85c0 1.92.431 2.726 1.161 3.255.67.49 1.354.542 1.86.542.655 0 1.459-.184 2.052-.713.82-.73.865-1.92.865-3.281V63.04c0-2.011 0-2.382-.03-2.806-.03-.449-.15-.66-.64-.754a3.501 3.501 0 0 0-.537-.038c-.162 0-.251-.026-.251-.12 0-.092.103-.118.31-.118.76 0 1.698.038 1.712.038.18 0 1.118-.038 1.698-.038.208 0 .312.026.312.118 0 .094-.089.12-.269.12zm12.638 0c-.15 0-.269 0-.447.039-.417.107-.536.385-.55 1.126l-.164 8.346c0 .291-.06.41-.194.41-.162 0-.342-.146-.505-.292-.938-.793-2.843-2.526-4.39-3.888-1.623-1.43-3.275-3.083-3.542-3.334h-.046l.164 5.556c.03 1.031.224 1.376.52 1.468.254.08.537.094.774.094.165 0 .254.026.254.104 0 .106-.135.133-.343.133-.967 0-1.563-.04-1.844-.04-.134 0-.835.04-1.609.04-.193 0-.326-.013-.326-.133 0-.078.089-.104.237-.104.194 0 .461-.014.671-.068.386-.106.445-.49.461-1.64l.133-7.83c0-.264.045-.45.194-.45.164 0 .298.172.55.41.18.172 2.442 2.328 4.614 4.247 1.011.898 3.022 2.803 3.275 3.015h.073l-.148-5.938c-.014-.807-.149-1.059-.507-1.192-.221-.078-.58-.078-.787-.078-.18 0-.24-.04-.24-.12 0-.106.165-.118.388-.118.774 0 1.488.038 1.8.038.165 0 .73-.038 1.46-.038.193 0 .341.012.341.118 0 .08-.089.12-.267.12zm.27-5.42c0-.068.06-.108.24-.108.224 0 .404-.028.538-.054.299-.054.39-.281.433-.67.075-.564.075-1.622.075-2.921V47.91c0-2.036 0-2.413-.03-2.841-.029-.455-.18-.684-.508-.75a2.383 2.383 0 0 0-.54-.054c-.148 0-.238-.027-.238-.135 0-.08.12-.106.36-.106.569 0 1.51.04 1.945.04.374 0 1.257-.04 1.825-.04.196 0 .314.026.314.106 0 .108-.089.135-.239.135s-.269.014-.449.04c-.403.068-.524.295-.553.764-.03.428-.03.805-.03 2.841v2.358c0 1.3 0 2.357.06 2.933.045.363.15.604.598.658.21.026.538.054.764.054.164 0 .239.04.239.107 0 .092-.12.134-.285.134-.987 0-1.93-.042-2.335-.042-.344 0-1.285.042-1.884.042-.196 0-.3-.042-.3-.134zM65.79 68.7c-.074.223-.133.29-.386.383-.596.211-1.728.305-2.68.305-2.038 0-3.75-.397-5.105-1.443-1.458-1.137-1.844-2.618-1.844-3.902 0-.899.313-2.46 1.741-3.624 1.071-.873 2.486-1.402 4.702-1.402.924 0 1.474.052 2.159.132.566.066 1.04.186 1.488.224.164.014.223.081.223.16 0 .105-.045.265-.075.726-.03.438-.014 1.165-.043 1.43-.016.2-.046.304-.18.304-.119 0-.149-.105-.149-.29a1.783 1.783 0 0 0-.58-1.218c-.49-.463-1.652-.82-3.021-.82-1.294 0-2.143.29-2.798.82-1.086.886-1.37 2.142-1.37 3.426 0 3.149 2.694 4.709 4.688 4.709 1.326 0 2.13-.132 2.725-.741.251-.252.445-.635.505-.873.045-.211.075-.265.194-.265.104 0 .134.093.134.2 0 .157-.178 1.31-.328 1.758zm-3.506-15.82c-1.467-1.152-1.856-2.653-1.856-3.954 0-.911.314-2.491 1.75-3.671 1.078-.883 2.5-1.42 4.73-1.42.927 0 1.482.055 2.17.134.568.066 1.048.188 1.495.228.166.014.226.081.226.161 0 .108-.046.267-.075.737-.03.441-.014 1.178-.044 1.447-.016.201-.045.307-.18.307-.12 0-.15-.106-.15-.295a1.822 1.822 0 0 0-.583-1.231c-.495-.469-1.661-.831-3.04-.831-1.3 0-2.153.295-2.813.83-1.092.897-1.376 2.17-1.376 3.47 0 3.189 2.709 4.771 4.714 4.771 1.332 0 2.14-.134 2.738-.751a2.15 2.15 0 0 0 .51-.883c.044-.215.073-.27.194-.27.105 0 .134.095.134.202 0 .161-.18 1.327-.328 1.782-.075.227-.136.295-.39.388-.598.216-1.735.31-2.694.31-2.05 0-3.771-.403-5.132-1.462zm9.882 16.322c-.983 0-1.92-.04-2.323-.04-.34 0-1.278.04-1.874.04-.193 0-.298-.04-.298-.133 0-.066.06-.104.239-.104.224 0 .402-.028.536-.054.297-.052.386-.278.432-.66.073-.556.073-1.602.073-2.884V63.04c0-2.011 0-2.382-.03-2.806-.03-.449-.178-.674-.506-.74a2.44 2.44 0 0 0-.535-.052c-.15 0-.239-.026-.239-.132 0-.08.12-.106.358-.106.566 0 1.504.038 1.935.038.372 0 1.249-.038 1.815-.038.194 0 .313.026.313.106 0 .106-.09.132-.238.132s-.267.013-.447.038c-.402.067-.52.291-.55.754-.03.424-.03.795-.03 2.806v2.328c0 1.282 0 2.328.06 2.895.043.358.148.597.595.649.208.026.536.054.758.054.164 0 .24.038.24.104 0 .094-.12.133-.284.133zm9.325-.317c-.09.29-.164.357-.938.357-2.143 0-3.124-.08-4.33-.08-.342 0-1.28.04-1.875.04-.194 0-.297-.04-.297-.133 0-.066.06-.104.237-.104.224 0 .402-.028.537-.054.296-.052.372-.343.43-.729.074-.555.074-1.6.074-2.815V63.04c0-2.011 0-2.382-.03-2.806-.03-.449-.148-.66-.639-.754a2.675 2.675 0 0 0-.49-.038c-.165 0-.254-.026-.254-.12 0-.092.105-.118.327-.118.7 0 1.638.038 2.04.038.356 0 1.442-.038 2.024-.038.208 0 .313.026.313.118 0 .094-.091.12-.27.12a4.83 4.83 0 0 0-.58.038c-.4.067-.52.291-.55.754-.029.424-.029.795-.029 2.806v2.328c0 1.693 0 2.606.31 2.843.254.198.642.292 1.802.292.789 0 1.369-.014 1.74-.372.18-.171.359-.543.389-.794.015-.118.045-.198.164-.198.103 0 .119.068.119.226 0 .145-.105 1.138-.224 1.521zm.285-23.12c-.014.134-.044.213-.135.213-.119 0-.148-.066-.164-.267l-.016-.147c-.03-.349-.433-.724-1.765-.75l-1.885-.041v5.494c0 1.232 0 2.29.075 2.868.044.374.135.67.584.723.21.026.537.054.763.054.164 0 .239.04.239.107 0 .092-.12.134-.285.134-.986 0-1.93-.042-2.349-.042-.344 0-1.287.042-1.886.042-.194 0-.299-.042-.299-.134 0-.067.06-.107.24-.107.225 0 .403-.028.54-.054.298-.054.387-.349.432-.737.076-.564.076-1.622.076-2.854v-5.494l-2.23.053c-.869.028-1.229.094-1.452.389a1.49 1.49 0 0 0-.255.47c-.03.106-.075.16-.164.16-.105 0-.135-.068-.135-.214 0-.215.285-1.434.315-1.542.043-.173.089-.253.18-.253.118 0 .268.133.642.16.433.04 1.003.067 1.497.067h5.926c.957 0 1.317-.133 1.436-.133.106 0 .12.08.12.28 0 .282-.045 1.206-.045 1.555zm1.135-6.705H81.72c-.41 0-.657 0-.943-.028-.74-.068-1.11-.366-1.698-.883-.603-.53-3.297-3.67-3.584-4.066l-.152-.203h-.068v1.237c0 1.25 0 2.324.04 2.909.028.38.152.68.495.734.19.027.492.055.668.055.11 0 .179.04.179.108 0 .095-.109.137-.259.137-.767 0-1.63-.042-1.972-.042-.314 0-1.175.042-1.724.042-.178 0-.274-.042-.274-.137 0-.068.056-.108.22-.108.205 0 .369-.028.493-.055.272-.054.342-.354.396-.748.068-.57.068-1.645.068-2.895v-2.393c0-2.068 0-2.448-.026-2.883-.028-.462-.138-.68-.588-.776a2.955 2.955 0 0 0-.535-.04c-.15 0-.232-.027-.232-.123 0-.095.096-.121.3-.121.727 0 1.588.04 1.916.04.329 0 1.191-.04 1.656-.04.192 0 .288.026.288.121 0 .096-.082.124-.192.124-.136 0-.218.013-.382.04-.37.069-.48.3-.507.775-.028.435-.028.815-.028 2.883v.597h.068c.467-.503 2.463-2.528 2.861-2.99.383-.45.685-.788.685-1.02 0-.15-.056-.246-.192-.272-.124-.027-.179-.055-.179-.137 0-.095.069-.121.219-.121.288 0 1.04.04 1.41.04.424 0 1.176-.04 1.6-.04.137 0 .233.026.233.121 0 .096-.068.124-.204.124-.192 0-.535.053-.795.149-.424.163-.889.45-1.478 1.02-.424.408-2.49 2.446-2.955 2.937.493.638 3.174 3.508 3.708 4.01.603.572 1.218 1.182 1.956 1.469.41.163.685.204.85.204.095 0 .177.026.177.108 0 .095-.068.137-.328.137z"/><path d="M46.402 49.21c.314.093.763.133 1.137.133.599 0 .793-.054 1.062-.227.448-.295.883-.913.883-2.01 0-1.904-1.407-2.452-2.29-2.452-.373 0-.642.014-.792.054-.105.026-.135.08-.135.187v4.073c0 .148.03.202.135.241M34.052 29.42c-.342 0-.588.014-.725.054-.096.028-.124.082-.124.191v4.133c0 .15.028.204.124.244.287.096.697.137 1.04.137.548 0 .726-.054.972-.23.41-.3.807-.925.807-2.04 0-1.932-1.287-2.488-2.094-2.488M24.122 31.27c-.04 0-.068.068-.082.121l-1.26 3.345c-.013.056 0 .096.057.096h2.516c.068 0 .082-.04.068-.082l-1.23-3.359c-.013-.053-.029-.121-.069-.121M94.006 5.383h1.335V.273h-1.335z"/><path d="M25.354 34.832h-2.519c-.054 0-.068-.04-.054-.095l1.26-3.345c.013-.054.04-.121.081-.121.04 0 .054.067.068.121l1.232 3.359c.014.041 0 .081-.068.081M35.339 33.948c-.246.177-.425.231-.971.231-.343 0-.753-.041-1.041-.135-.096-.042-.122-.096-.122-.246v-4.133c0-.11.026-.163.122-.19.138-.04.384-.054.725-.054.808 0 2.094.556 2.094 2.487 0 1.116-.397 1.74-.807 2.04M24.338 68.727c-2.858 0-4.57-2.182-4.57-4.934 0-3.294 1.95-4.141 3.661-4.141 2.442 0 4.361 1.839 4.361 4.802 0 3.824-2.412 4.273-3.452 4.273M14.106 52.68c-.898.697-1.916.964-3.442.964-1.183 0-1.766-.281-1.96-.536-.12-.148-.15-.684-.164-1.019-.016-.253-.031-1.285-.031-2.706v-1.688c0-1.058 0-2.224.015-2.68 0-.148.046-.214.18-.267.119-.054.673-.094.973-.094 1.167 0 2.873.161 4.25 1.34.644.55 1.437 1.647 1.437 3.35 0 1.38-.3 2.6-1.258 3.335M46.267 44.895c0-.108.03-.16.135-.188.15-.04.419-.054.792-.054.884 0 2.29.55 2.29 2.453 0 1.099-.435 1.714-.882 2.01-.27.173-.464.227-1.063.227-.374 0-.823-.04-1.137-.134-.105-.04-.135-.094-.135-.241v-4.073zM90.288 12.132h1.33V7.399h-1.33zM95.24 33.744h1.332V25.76H95.24zM95.24 50.779h1.332v-7.986H95.24zM116.861 75.823h11.383V63.047H116.86v12.776z"/><path d="M99.335 74.667h26.954v-.269H99.335zM99.335 73.531h26.954v-.267H99.335zM99.335 72.396h26.954v-.268H99.335zM99.335 71.26h26.954v-.269H99.335zM99.335 75.804h26.954v-.27H99.335zM102.288 1.985h11.334v-.269h-11.334zM102.288.85h11.334V.581h-11.334zM102.288 3.121h11.334v-.269h-11.334zM102.288 4.258h11.334v-.27h-11.334zM99.335 70.124h26.954v-.267H99.335zM99.335 64.447h26.954v-.268H99.335zM99.335 63.311h26.954v-.269H99.335zM115.337 59.904h9.43v-.269h-9.43zM116.098 61.04h9.43v-.269h-9.43zM116.861 62.175h9.428v-.27h-9.428zM99.335 66.717h26.954v-.27H99.335zM99.335 67.855h26.954v-.27H99.335zM99.335 68.99h26.954v-.27H99.335zM99.335 65.582h26.954v-.269H99.335z"/><path d="M121.27.244v4.881H98.86v.27h18.422v.867H98.86v.267h18.422v.867H98.86v.27h8.147v.867H98.86V8.8h8.147v.867H98.86v.269h8.147v.867H98.86v.27h8.147v.867H98.86v.267h18.422v.867H98.86v.27h18.422v.867H98.86v.269h18.422v.86h-18.23l.003.005H87.05v.27h12.173l.543.867h-10.81v.268h10.978l.541.868h-9.616v.267h9.786l.541.867h-8.422v.27h21.86v.867H101.24v.269h13.382v.867H101.24v.267h13.382v.868H101.24v.269h13.382v.867H101.24v.267h13.382v.868H101.24v.268h13.382v.868H101.24v.269h5.809v.867h-5.809v.267h5.809v.868h-5.809v.269h5.809v.867h-5.809v.269h5.809v.866h-5.809v.269h5.809v.867h-5.809v.269h5.809v.867h-5.809v.267h5.809v.868h-5.809v.269h13.382v.867H101.24v.269h13.382v.867H101.24v.268h13.382v.867H101.24v.269h13.382v.867H101.24v.267h13.382v.868H101.24v.269h13.382v.867H101.24v.27h13.382v.867H101.24v.267h13.382v.867H101.24v.269h5.809v.867h-5.809v.27h5.809v.865h-5.809v.269h5.809v.867h-5.809v.27h5.809v.867h-5.809v.267h5.809v.867h-5.809v.27h5.809v.867h-5.809v.268h5.809v.868h-5.809v.267h13.382v.867H101.24v.27h13.382v.867H101.24v.267h13.382v.867H101.24v.27h13.382v.867H101.24v.269h13.382v.867H101.24v.267h13.382v.868H101.24v.268h13.382v.868H101.24v.269h14v-.03h8.783V18.641l6.361-3.773V.244h-9.115zm-6.647 50.308h-6.239v-.868h6.239v.868zm0-1.136h-6.239v-.868h6.239v.868zm0-1.137h-6.239v-.867h6.239v.867zm0-1.134h-6.239v-.868h6.239v.868zm0-1.137h-6.239v-.867h6.239v.867zm0-1.136h-6.239v-.867h6.239v.867zm0-1.135h-6.239v-.867h6.239v.867zm0-10.221h-6.239v-.868h6.239v.868zm0-1.135h-6.239v-.867h6.239v.867zm0-1.136h-6.239v-.867h6.239v.867zm0-1.136h-6.239v-.868h6.239v.868zm0-1.135h-6.239v-.867h6.239v.867zm0-1.136h-6.239v-.868h6.239v.868zm0-1.135h-6.239v-.867h6.239v.867zm2.658-14.763h-8.946v-.868h8.946v.868zm0-1.137h-8.946v-.867h8.946v.867zm0-1.136h-8.946V8.8h8.946v.867zm0-1.134h-8.946v-.868h8.946v.868zm2.533 42.246h-1.333v-7.76h1.333v7.76zm0-17.034h-1.333v-7.76h1.333v7.76zm5.333-21.436h-1.332V7.2h1.332v5.11z"/></g></svg>